<svg width="68" height="66" viewBox="0 0 68 66" fill="none" xmlns="http://www.w3.org/2000/svg">
<g filter="url(#filter0_d)">
<path d="M43.8947 23.7977C43.3394 23.6496 42.7672 23.646 42.2243 23.782L40.4006 20.6571L38.873 21.5138L40.6968 24.6392C40.3022 25.0287 40.0147 25.5143 39.8636 26.0587C39.6334 26.8885 39.7465 27.7565 40.1823 28.5028L41.0973 30.0713C41.5327 30.8177 42.239 31.3531 43.0854 31.5793C43.3719 31.6556 43.6635 31.6937 43.9529 31.6937C44.2238 31.6937 44.493 31.66 44.7558 31.5945L45.1147 32.2089C44.1039 33.2115 43.8512 34.7903 44.5992 36.0721L45.5143 37.6406C45.9501 38.3869 46.6559 38.9223 47.5023 39.1481C47.7889 39.2248 48.0805 39.2625 48.3698 39.2625C48.6408 39.2625 48.9104 39.2293 49.1727 39.1633L51.0097 42.3116L52.5378 41.4548L50.6998 38.3057C51.7106 37.3035 51.9633 35.7243 51.2153 34.443L50.3002 32.8745C49.5522 31.5927 48.0356 31.0062 46.6422 31.3522L46.2833 30.7378C46.6784 30.3478 46.9654 29.8626 47.1165 29.3183C47.3467 28.4885 47.2336 27.62 46.7979 26.8737L45.8828 25.3056C45.4474 24.5589 44.7411 24.0235 43.8947 23.7977ZM48.7722 33.7312L49.6877 35.2997C49.9422 35.7359 49.9468 36.2466 49.7463 36.6712L49.2345 35.7947L47.707 36.6515L48.2192 37.5288C48.1341 37.5208 48.0489 37.5055 47.9647 37.4831C47.5719 37.3785 47.2442 37.1299 47.0418 36.7834L46.1268 35.2153C45.8723 34.7787 45.8672 34.2679 46.0682 33.8434L46.5928 34.7423L48.1208 33.8856L47.5957 32.9862C48.0709 33.032 48.5177 33.295 48.7722 33.7312ZM44.8176 28.2259L43.29 29.0826L43.8018 29.96C43.7166 29.952 43.6315 29.9367 43.5473 29.9143C43.1545 29.8092 42.8268 29.5611 42.6249 29.2146L41.7098 27.6461C41.5075 27.2996 41.4548 26.8966 41.562 26.5115C41.5848 26.429 41.6146 26.3495 41.6503 26.2732L42.1758 27.1735L43.7034 26.3163L43.1788 25.4174C43.6539 25.4627 44.1007 25.7257 44.3552 26.1619L45.2703 27.7305C45.4726 28.0769 45.5253 28.4795 45.4182 28.865C45.3953 28.9476 45.3655 29.027 45.3298 29.1033L44.8176 28.2259Z" fill="white"/>
<path d="M17.0363 42.3116L18.8743 39.1624C19.1389 39.2279 19.4085 39.2603 19.6763 39.2603C20.8166 39.2603 21.9262 38.6782 22.5318 37.6401L23.4473 36.0721C23.8827 35.3257 23.9957 34.4573 23.7655 33.6275C23.6144 33.0831 23.3269 32.598 22.9323 32.208L23.2912 31.5936C23.5563 31.6591 23.8254 31.6915 24.0932 31.6915C25.2335 31.6915 26.3431 31.1094 26.9492 30.0713L27.8643 28.5028C28.6123 27.2215 28.3596 25.6427 27.3488 24.6401L29.1735 21.5138L27.6459 20.6571L25.8213 23.7834C24.4279 23.4369 22.9113 24.0239 22.1633 25.3052L21.2482 26.8737C20.5002 28.1555 20.7529 29.7343 21.7637 30.7364L21.4048 31.3513C20.8619 31.2153 20.2897 31.2184 19.7344 31.3665C18.888 31.5923 18.1821 32.1277 17.7463 32.874L16.8313 34.4425C16.0833 35.7243 16.336 37.3031 17.3463 38.3057L15.5088 41.4544L17.0363 42.3116ZM22.6279 28.865C22.5213 28.4795 22.5735 28.0769 22.7758 27.7305L23.6909 26.1619C23.9454 25.7257 24.3922 25.4632 24.8678 25.4174L24.3432 26.3168L25.8707 27.1735L26.3953 26.2741C26.5963 26.6991 26.5917 27.2099 26.3367 27.6461L25.4217 29.2146C25.1667 29.6508 24.7204 29.9138 24.2448 29.9591L24.7561 29.0831L23.2285 28.2259L22.7167 29.1033C22.6806 29.027 22.6508 28.9476 22.6279 28.865ZM18.3588 35.2997L19.2739 33.7312C19.4762 33.3847 19.8035 33.1361 20.1963 33.0315C20.2805 33.0091 20.3657 32.9938 20.4508 32.9858L19.9258 33.8856L21.4533 34.7423L21.9779 33.8434C22.1789 34.2679 22.1743 34.7787 21.9198 35.2153L21.0042 36.7834C20.7497 37.2201 20.3029 37.4826 19.8278 37.5284L20.3391 36.6519L18.8116 35.7952L18.3002 36.6717C18.0993 36.2466 18.1039 35.7359 18.3588 35.2997Z" fill="white"/>
<path d="M42.8578 51.3902L46.5305 51.3799L46.5254 49.6543L42.8514 49.6646C42.4628 48.311 41.192 47.3165 39.6901 47.3165H39.6805L37.8375 47.3219C36.3315 47.326 35.0616 48.329 34.6803 49.6875L33.958 49.6897C33.8074 49.1606 33.519 48.6759 33.1107 48.2783C32.4908 47.6742 31.6692 47.3417 30.7953 47.3417H30.7857L28.9427 47.3466C28.0656 47.3493 27.2421 47.6863 26.6237 48.2962C26.2177 48.6966 25.932 49.1826 25.7846 49.7126L22.085 49.7229L22.09 51.4481L25.7906 51.4377C26.1792 52.7917 27.4504 53.7858 28.9523 53.7858H28.9615L30.8044 53.7804C31.6815 53.7782 32.5055 53.4407 33.1239 52.8312C33.5295 52.4309 33.8152 51.9449 33.963 51.4149L34.684 51.4126C34.8346 51.9417 35.1234 52.4264 35.5313 52.8245C36.1511 53.4286 36.9728 53.7607 37.8467 53.7607H37.8563L39.6993 53.7557C40.5763 53.753 41.4003 53.416 42.0187 52.8061C42.4243 52.4062 42.71 51.9202 42.8578 51.3902ZM31.8761 51.6146C31.5891 51.8978 31.2068 52.0539 30.7999 52.0553L28.9569 52.0602H28.9523C28.4415 52.0602 27.9878 51.8125 27.7113 51.4324L28.7413 51.4297L28.7363 49.7041L27.7049 49.7072C27.7544 49.6386 27.8098 49.5735 27.8716 49.5129C28.1586 49.2297 28.5408 49.0735 28.9478 49.0722L30.7907 49.0668H30.7953C31.2009 49.0668 31.5822 49.2212 31.8697 49.5017C31.9319 49.5618 31.9878 49.6264 32.0377 49.6951L30.9798 49.6978L30.9848 51.4234L32.0427 51.4202C31.9933 51.4889 31.9374 51.554 31.8761 51.6146ZM39.6942 52.0301L37.8513 52.0355H37.8467C37.4411 52.0355 37.0598 51.8811 36.7723 51.6011C36.7105 51.5405 36.6542 51.4759 36.6048 51.4077L37.6357 51.4045L37.6306 49.6794L36.6006 49.6821C36.8758 49.2997 37.3299 49.0488 37.8426 49.0471L39.6855 49.0421H39.6901C40.201 49.0421 40.6541 49.2898 40.9311 49.67L39.8746 49.6731L39.8796 51.3983L40.937 51.3956C40.8876 51.4642 40.8322 51.5289 40.7704 51.5899C40.4834 51.8726 40.1012 52.0292 39.6942 52.0301Z" fill="white"/>
<path d="M34.9035 27.9616V18.4065L43.3442 13.6287L42.4639 12.1346L34.0236 16.912L25.5834 12.1346L24.7031 13.6287L33.1438 18.4065V27.9616H34.9035Z" fill="white"/>
<path d="M60.3276 42.3866L51.8897 47.1684L43.4458 42.3942L42.5664 43.8887L51.0103 48.6629L51.0149 58.218L52.7745 58.2176L52.7704 48.6624L61.2084 43.8802L60.3276 42.3866Z" fill="white"/>
<path d="M16.9874 58.1565V48.6014L25.4276 43.8241L24.5478 42.33L16.1076 47.1074L7.66595 42.3296L6.78613 43.8241L15.2273 48.6014V58.1565H16.9874Z" fill="white"/>
<path d="M23.6757 12.0512L34.023 6.19407L44.3702 12.0512V22.7876H46.1303V11.0549L34.023 4.2019L21.916 11.0549V22.7876H23.6757V12.0512Z" fill="white"/>
<path d="M34.0236 31.6139L38.8841 28.8628L38.0043 27.3688L34.0236 29.6217L30.0419 27.3679L29.1621 28.8619L34.0236 31.6139Z" fill="white"/>
<path d="M16.1074 59.817L5.7601 53.9598V42.246L15.3722 36.8054L14.4924 35.3109L4 41.2502V54.9562L16.1074 61.8091L27.2814 55.4844L26.4016 53.9899L16.1074 59.817Z" fill="white"/>
<path d="M28.2148 46.1846V41.2502L23.4911 38.5763L22.6113 40.0708L26.4552 42.246V46.1846H28.2148Z" fill="white"/>
<path d="M63.9932 41.3054L53.553 35.4025L52.6736 36.8969L62.234 42.3021L62.24 54.0159L51.8954 59.878L41.7798 54.1587L40.9004 55.6531L51.8963 61.8702L64.0001 55.0114L63.9932 41.3054Z" fill="white"/>
<path d="M44.5776 38.5979L39.7793 41.3171L39.7816 45.9773L41.5417 45.9764L41.5394 42.3125L45.4583 40.0915L44.5776 38.5979Z" fill="white"/>
<path d="M28.5003 12.6539L27.6182 11.1608L29.1407 10.296L30.0233 11.7887L28.5003 12.6539ZM38.9442 12.2998L34.0241 9.5151L33.576 9.77001L32.6934 8.27689L34.0223 7.52203L39.8244 10.8058L38.9442 12.2998ZM31.0381 11.212L30.156 9.71885L31.6785 8.85404L32.5606 10.3467L31.0381 11.212Z" fill="white"/>
<path d="M55.2665 56.6387L54.3857 55.1451L59.3044 52.3577L59.3035 51.8497L61.0631 51.8461L61.0663 53.3517L55.2665 56.6387ZM59.3008 50.6994L59.2971 48.9743L61.0567 48.9702L61.0609 50.6958L59.3008 50.6994ZM59.2943 47.824L59.2907 46.0984L61.0508 46.0948L61.0544 47.82L59.2943 47.824Z" fill="white"/>
<path d="M13.3505 56.9147L6.93359 53.2966V51.492H8.69324V52.2989L14.2276 55.4194L13.3505 56.9147ZM6.93359 50.3418V48.6162H8.69324V50.3413L6.93359 50.3418ZM8.69324 47.4659H6.93359V45.7404H8.69324V47.4659Z" fill="white"/>
</g>
<defs>
<filter id="filter0_d" x="0" y="-0.372559" width="68" height="66.8235" filterUnits="userSpaceOnUse" color-interpolation-filters="sRGB">
<feFlood flood-opacity="0" result="BackgroundImageFix"/>
<feColorMatrix in="SourceAlpha" type="matrix" values="0 0 0 0 0 0 0 0 0 0 0 0 0 0 0 0 0 0 127 0"/>
<feOffset/>
<feGaussianBlur stdDeviation="2"/>
<feColorMatrix type="matrix" values="0 0 0 0 0.0941176 0 0 0 0 0.627451 0 0 0 0 0.984314 0 0 0 1 0"/>
<feBlend mode="normal" in2="BackgroundImageFix" result="effect1_dropShadow"/>
<feBlend mode="normal" in="SourceGraphic" in2="effect1_dropShadow" result="shape"/>
</filter>
</defs>
</svg>
