<svg width="64" height="64" viewBox="0 0 64 64" fill="none" xmlns="http://www.w3.org/2000/svg">
<g filter="url(#filter0_d)">
<path d="M47.9375 32.098C47.9375 23.4822 40.7881 16.473 32 16.473C23.2119 16.473 16.0625 23.4822 16.0625 32.098C16.0625 36.8591 18.2516 41.1219 21.6875 43.9896V49.1807L17.2747 53.507C17.0984 53.6789 17 53.9124 17 54.1568V55.9951H18.875V54.5374L23.2878 50.2111C23.4641 50.0392 23.5625 49.8057 23.5625 49.5613V45.3296C24.4466 45.8728 25.3869 46.3324 26.375 46.6991V51.019L23.8372 53.507C23.6609 53.6789 23.5625 53.9124 23.5625 54.1568V55.9951H25.4375V54.5374L27.9753 52.0493C28.1516 51.8774 28.25 51.644 28.25 51.3995V47.2681C29.1603 47.4841 30.0997 47.621 31.0625 47.6761V55.9951H32.9375V47.6761C33.9003 47.621 34.8397 47.4841 35.75 47.2681V51.3995C35.75 51.644 35.8484 51.8774 36.0247 52.0493L38.5625 54.5374V55.9951H40.4375V54.1568C40.4375 53.9124 40.3391 53.6789 40.1628 53.507L37.625 51.019V46.6991C38.6131 46.3315 39.5534 45.8728 40.4375 45.3296V49.5613C40.4375 49.8057 40.5359 50.0392 40.7122 50.2111L45.125 54.5374V55.9951H47V54.1568C47 53.9124 46.9016 53.6789 46.7253 53.507L42.3125 49.1807V43.9896C45.7484 41.1219 47.9375 36.8591 47.9375 32.098ZM32 18.3113C33.6669 18.3113 35.4528 20.5346 36.5544 24.1936C33.5525 24.7855 30.4475 24.7855 27.4456 24.1936C28.5472 20.5346 30.3331 18.3113 32 18.3113ZM32 26.4813C33.6781 26.4813 35.3544 26.3076 37.0034 25.9776C37.3372 27.5355 37.5509 29.2818 37.6044 31.1789H26.3956C26.4491 29.2818 26.6628 27.5346 26.9966 25.9776C28.6456 26.3076 30.3219 26.4813 32 26.4813ZM39.4784 33.0171H46.0147C45.8291 35.7607 44.8241 38.2818 43.2341 40.3563C41.8147 39.6467 40.3381 39.0806 38.8231 38.6578C39.1981 36.9326 39.4241 35.0328 39.4784 33.0171ZM37.0034 38.2193C33.7072 37.5594 30.2937 37.5594 26.9975 38.2193C26.6637 36.6614 26.45 34.9151 26.3966 33.0171H37.6044C37.5509 34.9151 37.3372 36.6614 37.0034 38.2193ZM39.4784 31.1789C39.4241 29.1633 39.1981 27.2635 38.8231 25.5392C40.3381 25.1164 41.8147 24.5502 43.2341 23.8407C44.8241 25.9151 45.8291 28.4363 46.0147 31.1798H39.4784V31.1789ZM24.5216 31.1789H17.9853C18.1709 28.4353 19.1759 25.9142 20.7659 23.8397C22.1853 24.5493 23.6619 25.1164 25.1769 25.5383C24.8019 27.2644 24.5759 29.1633 24.5216 31.1789ZM24.5216 33.0171C24.5759 35.0328 24.8019 36.9326 25.1769 38.6578C23.6619 39.0796 22.1853 39.6458 20.7659 40.3563C19.1759 38.2818 18.1709 35.7607 17.9853 33.0171H24.5216ZM25.6334 40.4399C26.2184 42.4022 27.0059 44.0585 27.9425 45.2947C25.6728 44.6228 23.6431 43.405 22.0156 41.7938C23.1847 41.2368 24.3959 40.7883 25.6334 40.4399ZM27.4456 40.0024C30.4475 39.4105 33.5525 39.4105 36.5544 40.0024C35.4528 43.6614 33.6669 45.8848 32 45.8848C30.3331 45.8848 28.5472 43.6614 27.4456 40.0024ZM38.3666 40.4399C39.6041 40.7883 40.8153 41.2368 41.9853 41.7929C40.3578 43.4041 38.3281 44.6219 36.0584 45.2938C36.9941 44.0585 37.7816 42.4022 38.3666 40.4399ZM41.9853 22.4032C40.8153 22.9602 39.6041 23.4078 38.3666 23.7561C37.7816 21.7938 36.9941 20.1375 36.0575 18.9013C38.3281 19.5741 40.3569 20.792 41.9853 22.4032ZM27.9425 18.9022C27.0059 20.1375 26.2194 21.7938 25.6334 23.757C24.3959 23.4087 23.1847 22.9602 22.0147 22.4041C23.6431 20.792 25.6719 19.5741 27.9425 18.9022Z" fill="#FEFEFE"/>
<path d="M45.125 57.8334H47V59.6716H45.125V57.8334Z" fill="#FEFEFE"/>
<path d="M38.5625 57.8334H40.4375V59.6716H38.5625V57.8334Z" fill="#FEFEFE"/>
<path d="M17 57.8334H18.875V59.6716H17V57.8334Z" fill="#FEFEFE"/>
<path d="M23.5625 57.8334H25.4375V59.6716H23.5625V57.8334Z" fill="#FEFEFE"/>
<path d="M31.0625 57.8334H32.9375V59.6716H31.0625V57.8334Z" fill="#FEFEFE"/>
<path d="M28.6855 13.985L30.0112 15.2846C31.108 14.2093 32.8912 14.2093 33.988 15.2846L35.3137 13.985C33.4865 12.1936 30.5127 12.1936 28.6855 13.985Z" fill="#FEFEFE"/>
<path d="M38.2632 11.2276C34.8095 7.8416 29.1901 7.8416 25.7373 11.2276L27.0629 12.5273C29.7854 9.85815 34.2151 9.85815 36.9376 12.5273L38.2632 11.2276Z" fill="#FEFEFE"/>
<path d="M39.7744 9.77001L41.1 8.47038C36.0825 3.54942 27.9169 3.54942 22.8994 8.47038L24.225 9.77001C28.5113 5.56781 35.4882 5.56781 39.7744 9.77001Z" fill="#FEFEFE"/>
<path d="M13.5247 28.849C11.6975 30.6404 11.6975 33.5558 13.5247 35.3472L14.8503 34.0475C13.7534 32.9722 13.7534 31.224 14.8503 30.1486L13.5247 28.849Z" fill="#FEFEFE"/>
<path d="M10.7124 25.9574C7.25863 29.3434 7.25863 34.8526 10.7124 38.2377L12.038 36.9381C9.31551 34.269 9.31551 29.9261 12.038 27.257L10.7124 25.9574Z" fill="#FEFEFE"/>
<path d="M9.22519 24.4758L7.89957 23.1761C2.88113 28.0962 2.88113 36.1008 7.89957 41.0199L9.22519 39.7203C4.93894 35.5171 4.93894 28.6789 9.22519 24.4758Z" fill="#FEFEFE"/>
<path d="M49.1494 30.1486C50.2463 31.224 50.2463 32.9722 49.1494 34.0475L50.475 35.3472C52.3022 33.5558 52.3022 30.6404 50.475 28.849L49.1494 30.1486Z" fill="#FEFEFE"/>
<path d="M53.2875 25.9574L51.9619 27.257C54.6844 29.9261 54.6844 34.269 51.9619 36.9381L53.2875 38.2377C56.7413 34.8526 56.7413 29.3434 53.2875 25.9574Z" fill="#FEFEFE"/>
<path d="M56.1 23.1761L54.7744 24.4758C59.0607 28.6789 59.0607 35.5171 54.7744 39.7203L56.1 41.0199C61.1185 36.0999 61.1185 28.0962 56.1 23.1761Z" fill="#FEFEFE"/>
</g>
<defs>
<filter id="filter0_d" x="-2" y="-1.31372" width="68" height="66.8235" filterUnits="userSpaceOnUse" color-interpolation-filters="sRGB">
<feFlood flood-opacity="0" result="BackgroundImageFix"/>
<feColorMatrix in="SourceAlpha" type="matrix" values="0 0 0 0 0 0 0 0 0 0 0 0 0 0 0 0 0 0 127 0"/>
<feOffset/>
<feGaussianBlur stdDeviation="2"/>
<feColorMatrix type="matrix" values="0 0 0 0 0.180392 0 0 0 0 0.603922 0 0 0 0 0.976471 0 0 0 1 0"/>
<feBlend mode="normal" in2="BackgroundImageFix" result="effect1_dropShadow"/>
<feBlend mode="normal" in="SourceGraphic" in2="effect1_dropShadow" result="shape"/>
</filter>
</defs>
</svg>
