<svg width="66" height="64" viewBox="0 0 66 64" fill="none" xmlns="http://www.w3.org/2000/svg">
<g filter="url(#filter0_d)">
<path d="M8.625 50.9878C9.14277 50.9878 9.5625 50.5763 9.5625 50.0687C9.5625 49.561 9.14277 49.1495 8.625 49.1495C8.10723 49.1495 7.6875 49.561 7.6875 50.0687C7.6875 50.5763 8.10723 50.9878 8.625 50.9878Z" fill="white"/>
<path d="M11.4375 50.9878C11.9553 50.9878 12.375 50.5763 12.375 50.0687C12.375 49.561 11.9553 49.1495 11.4375 49.1495C10.9197 49.1495 10.5 49.561 10.5 50.0687C10.5 50.5763 10.9197 50.9878 11.4375 50.9878Z" fill="white"/>
<path d="M14.25 50.9878C14.7678 50.9878 15.1875 50.5763 15.1875 50.0687C15.1875 49.561 14.7678 49.1495 14.25 49.1495C13.7322 49.1495 13.3125 49.561 13.3125 50.0687C13.3125 50.5763 13.7322 50.9878 14.25 50.9878Z" fill="white"/>
<path d="M31.125 47.3113H25.5V49.1495H31.125V47.3113Z" fill="white"/>
<path d="M31.125 50.9878H25.5V52.826H31.125V50.9878Z" fill="white"/>
<path d="M32.0625 31.8026V28.9289C32.0625 28.6851 31.9637 28.4514 31.7879 28.279C31.6121 28.1066 31.3736 28.0098 31.125 28.0098H8.625C8.12789 28.0092 7.65131 27.8154 7.2998 27.4708C6.9483 27.1261 6.75057 26.6589 6.75 26.1715V22.4951C6.75057 22.0077 6.9483 21.5405 7.2998 21.1959C7.65131 20.8512 8.12789 20.6574 8.625 20.6568H30.1875V18.8186H8.625C7.63078 18.8197 6.67761 19.2074 5.97459 19.8966C5.27158 20.5859 4.87613 21.5204 4.875 22.4951V26.1715C4.87606 26.9864 5.15272 27.7779 5.66165 28.4221C6.17057 29.0663 6.88304 29.5269 7.6875 29.7317V31.8026C6.88304 32.0074 6.17057 32.468 5.66165 33.1122C5.15272 33.7564 4.87606 34.5479 4.875 35.3627V39.0392C4.87606 39.854 5.15272 40.6455 5.66165 41.2897C6.17057 41.934 6.88304 42.3945 7.6875 42.5993V44.6702C6.88304 44.875 6.17057 45.3356 5.66165 45.9798C5.15272 46.624 4.87606 47.4155 4.875 48.2304V51.9068C4.87606 52.7217 5.15272 53.5132 5.66165 54.1574C6.17057 54.8016 6.88304 55.2622 7.6875 55.467V58.3407C7.6875 58.5844 7.78628 58.8182 7.96209 58.9906C8.13791 59.1629 8.37636 59.2598 8.625 59.2598H12.375C12.6236 59.2598 12.8621 59.1629 13.0379 58.9906C13.2137 58.8182 13.3125 58.5844 13.3125 58.3407V55.5833H26.4375V58.3407C26.4375 58.5844 26.5363 58.8182 26.7121 58.9906C26.8879 59.1629 27.1264 59.2598 27.375 59.2598H31.125C31.3736 59.2598 31.6121 59.1629 31.7879 58.9906C31.9637 58.8182 32.0625 58.5844 32.0625 58.3407V55.467C32.867 55.2622 33.5794 54.8016 34.0884 54.1574C34.5973 53.5132 34.8739 52.7217 34.875 51.9068V48.2304C34.8739 47.4155 34.5973 46.624 34.0884 45.9798C33.5794 45.3356 32.867 44.875 32.0625 44.6702V42.5993C32.867 42.3945 33.5794 41.934 34.0884 41.2897C34.5973 40.6455 34.8739 39.854 34.875 39.0392V35.3627C34.8739 34.5479 34.5973 33.7564 34.0884 33.1122C33.5794 32.468 32.867 32.0074 32.0625 31.8026ZM30.1875 31.6863H28.3125V29.848H30.1875V31.6863ZM9.5625 31.6863V29.848H11.4375V31.6863H9.5625ZM13.3125 29.848H26.4375V31.6863H13.3125V29.848ZM28.3125 44.5539V42.7157H30.1875V44.5539H28.3125ZM26.4375 44.5539H13.3125V42.7157H26.4375V44.5539ZM11.4375 44.5539H9.5625V42.7157H11.4375V44.5539ZM11.4375 57.4215H9.5625V55.5833H11.4375V57.4215ZM28.3125 57.4215V55.5833H30.1875V57.4215H28.3125ZM33 48.2304V51.9068C32.9994 52.3942 32.8017 52.8614 32.4502 53.2061C32.0987 53.5507 31.6221 53.7445 31.125 53.7451H8.625C8.12789 53.7445 7.65131 53.5507 7.2998 53.2061C6.9483 52.8614 6.75057 52.3942 6.75 51.9068V48.2304C6.75057 47.743 6.9483 47.2758 7.2998 46.9312C7.65131 46.5865 8.12789 46.3927 8.625 46.3921H31.125C31.6221 46.3927 32.0987 46.5865 32.4502 46.9312C32.8017 47.2758 32.9994 47.743 33 48.2304ZM33 39.0392C32.9994 39.5266 32.8017 39.9938 32.4502 40.3384C32.0987 40.683 31.6221 40.8769 31.125 40.8774H8.625C8.12789 40.8769 7.65131 40.683 7.2998 40.3384C6.9483 39.9938 6.75057 39.5266 6.75 39.0392V35.3627C6.75057 34.8754 6.9483 34.4081 7.2998 34.0635C7.65131 33.7189 8.12789 33.525 8.625 33.5245H31.125C31.6221 33.525 32.0987 33.7189 32.4502 34.0635C32.8017 34.4081 32.9994 34.8754 33 35.3627V39.0392Z" fill="white"/>
<path d="M8.625 38.1201C9.14277 38.1201 9.5625 37.7086 9.5625 37.201C9.5625 36.6934 9.14277 36.2819 8.625 36.2819C8.10723 36.2819 7.6875 36.6934 7.6875 37.201C7.6875 37.7086 8.10723 38.1201 8.625 38.1201Z" fill="white"/>
<path d="M11.4375 38.1201C11.9553 38.1201 12.375 37.7086 12.375 37.201C12.375 36.6934 11.9553 36.2819 11.4375 36.2819C10.9197 36.2819 10.5 36.6934 10.5 37.201C10.5 37.7086 10.9197 38.1201 11.4375 38.1201Z" fill="white"/>
<path d="M14.25 38.1201C14.7678 38.1201 15.1875 37.7086 15.1875 37.201C15.1875 36.6934 14.7678 36.2819 14.25 36.2819C13.7322 36.2819 13.3125 36.6934 13.3125 37.201C13.3125 37.7086 13.7322 38.1201 14.25 38.1201Z" fill="white"/>
<path d="M31.125 34.4436H25.5V36.2818H31.125V34.4436Z" fill="white"/>
<path d="M31.125 38.1201H25.5V39.9584H31.125V38.1201Z" fill="white"/>
<path d="M8.625 25.2524C9.14277 25.2524 9.5625 24.8409 9.5625 24.3333C9.5625 23.8257 9.14277 23.4142 8.625 23.4142C8.10723 23.4142 7.6875 23.8257 7.6875 24.3333C7.6875 24.8409 8.10723 25.2524 8.625 25.2524Z" fill="white"/>
<path d="M11.4375 25.2524C11.9553 25.2524 12.375 24.8409 12.375 24.3333C12.375 23.8257 11.9553 23.4142 11.4375 23.4142C10.9197 23.4142 10.5 23.8257 10.5 24.3333C10.5 24.8409 10.9197 25.2524 11.4375 25.2524Z" fill="white"/>
<path d="M14.25 25.2524C14.7678 25.2524 15.1875 24.8409 15.1875 24.3333C15.1875 23.8257 14.7678 23.4142 14.25 23.4142C13.7322 23.4142 13.3125 23.8257 13.3125 24.3333C13.3125 24.8409 13.7322 25.2524 14.25 25.2524Z" fill="white"/>
<path d="M58.3125 14.223C58.3114 13.4048 58.0324 12.6103 57.5196 11.9649C57.0068 11.3194 56.2894 10.8597 55.4805 10.6584C55.3922 9.87048 55.0106 9.14216 54.4088 8.6128C53.807 8.08344 53.0273 7.7902 52.2188 7.78918H49.875C49.1293 7.79001 48.4145 8.08078 47.8872 8.59771C47.3599 9.11463 47.0633 9.8155 47.0625 10.5465V23.4142C47.0633 24.1452 47.3599 24.8461 47.8872 25.363C48.4145 25.8799 49.1293 26.1707 49.875 26.1715H52.6875C53.2738 26.1715 53.8519 26.0368 54.3754 25.7781C54.8989 25.5194 55.3533 25.144 55.702 24.6819C56.0507 24.2199 56.2841 23.6842 56.3833 23.1177C56.4826 22.5512 56.445 21.9698 56.2736 21.4202C56.846 20.8619 57.2185 20.137 57.3355 19.3538C57.4526 18.5707 57.3078 17.7714 56.9228 17.0757C57.3553 16.7306 57.7044 16.2958 57.9447 15.8025C58.185 15.3091 58.3106 14.7697 58.3125 14.223ZM52.6875 24.3333H49.875C49.6264 24.333 49.3882 24.2361 49.2124 24.0638C49.0366 23.8915 48.9378 23.6579 48.9375 23.4142V10.5465C48.9378 10.3029 49.0366 10.0692 49.2124 9.89693C49.3882 9.72462 49.6264 9.6277 49.875 9.62742H52.2188C52.5916 9.62783 52.949 9.77321 53.2127 10.0317C53.4763 10.2901 53.6246 10.6406 53.625 11.0061C53.6242 11.082 53.617 11.1578 53.6034 11.2326C53.0915 10.7901 52.4324 10.5461 51.75 10.5465V12.3848C51.9986 12.3848 52.2371 12.4816 52.4129 12.654C52.5887 12.8263 52.6875 13.0601 52.6875 13.3039C52.6875 13.5477 52.5887 13.7814 52.4129 13.9538C52.2371 14.1262 51.9986 14.223 51.75 14.223V16.0612C52.4957 16.0604 53.2105 15.7696 53.7378 15.2527C54.2651 14.7358 54.5617 14.0349 54.5625 13.3039C54.5625 13.2885 54.5616 13.2733 54.5613 13.258C54.7923 13.0264 54.9865 12.7621 55.1373 12.474C55.4686 12.5783 55.7638 12.7711 55.9896 13.0307C56.2154 13.2904 56.363 13.6065 56.4158 13.9438C56.4686 14.281 56.4245 14.626 56.2885 14.9401C56.1525 15.2541 55.93 15.5248 55.6458 15.7218C55.4043 15.5698 55.1457 15.4456 54.8751 15.3517L54.2503 17.0848C54.5143 17.1765 54.754 17.3251 54.9519 17.5195C55.1497 17.7139 55.3006 17.9493 55.3936 18.2083C55.4866 18.4674 55.5192 18.7436 55.4892 19.0166C55.4591 19.2896 55.3671 19.5526 55.2198 19.7862C54.7337 19.3485 54.1382 19.0445 53.4936 18.9051C53.3126 18.347 52.9553 17.8599 52.4733 17.5139C51.9914 17.168 51.4098 16.9811 50.8125 16.9804V18.8186C51.0611 18.8186 51.2996 18.9154 51.4754 19.0878C51.6512 19.2602 51.75 19.4939 51.75 19.7377C51.75 19.9815 51.6512 20.2153 51.4754 20.3876C51.2996 20.56 51.0611 20.6568 50.8125 20.6568V22.4951C51.3675 22.4945 51.91 22.3331 52.3718 22.0313C52.8336 21.7294 53.1942 21.3006 53.4082 20.7985C53.8084 20.9618 54.1385 21.2561 54.3423 21.6311C54.5461 22.0062 54.6111 22.4389 54.5261 22.8556C54.4412 23.2723 54.2115 23.6473 53.8763 23.9167C53.5411 24.1862 53.121 24.3334 52.6875 24.3333Z" fill="white"/>
<path d="M43.3125 7.78918H40.9688C40.1602 7.7902 39.3805 8.08344 38.7787 8.6128C38.1769 9.14216 37.7953 9.87048 37.707 10.6584C37.0322 10.8249 36.418 11.1725 35.9333 11.662C35.4486 12.1515 35.1125 12.7637 34.9628 13.43C34.813 14.0962 34.8555 14.7902 35.0855 15.4341C35.3154 16.0781 35.7237 16.6465 36.2647 17.0757C35.8797 17.7714 35.7349 18.5707 35.852 19.3538C35.969 20.137 36.3415 20.8619 36.9139 21.4202C36.7425 21.9698 36.7049 22.5512 36.8042 23.1177C36.9034 23.6842 37.1368 24.2199 37.4855 24.6819C37.8342 25.144 38.2886 25.5194 38.8121 25.7781C39.3356 26.0368 39.9137 26.1715 40.5 26.1715H43.3125C44.0582 26.1707 44.773 25.8799 45.3003 25.363C45.8276 24.8461 46.1242 24.1452 46.125 23.4142V10.5465C46.1242 9.8155 45.8276 9.11463 45.3003 8.59771C44.773 8.08078 44.0582 7.79001 43.3125 7.78918ZM44.25 23.4142C44.2497 23.6579 44.1509 23.8915 43.9751 24.0638C43.7993 24.2361 43.5611 24.333 43.3125 24.3333H40.5C40.0665 24.3334 39.6464 24.1862 39.3112 23.9167C38.976 23.6473 38.7463 23.2723 38.6614 22.8556C38.5764 22.4389 38.6414 22.0062 38.8452 21.6311C39.049 21.2561 39.3791 20.9618 39.7793 20.7985C39.9933 21.3006 40.3539 21.7294 40.8157 22.0313C41.2775 22.3331 41.82 22.4945 42.375 22.4951V20.6568C42.1264 20.6568 41.8879 20.56 41.7121 20.3876C41.5363 20.2153 41.4375 19.9815 41.4375 19.7377C41.4375 19.4939 41.5363 19.2602 41.7121 19.0878C41.8879 18.9154 42.1264 18.8186 42.375 18.8186V16.9804C41.7777 16.9811 41.1961 17.168 40.7142 17.5139C40.2322 17.8599 39.8749 18.347 39.6939 18.9051C39.0493 19.0445 38.4538 19.3485 37.9677 19.7862C37.8204 19.5526 37.7284 19.2896 37.6983 19.0166C37.6683 18.7436 37.7009 18.4674 37.7939 18.2083C37.8869 17.9493 38.0378 17.7139 38.2356 17.5195C38.4335 17.3251 38.6732 17.1765 38.9372 17.0848L38.3123 15.3516C38.0418 15.4456 37.7832 15.5698 37.5417 15.7218C37.2575 15.5248 37.035 15.2541 36.899 14.9401C36.763 14.626 36.7189 14.281 36.7717 13.9437C36.8245 13.6065 36.9721 13.2903 37.1979 13.0307C37.4237 12.7711 37.7189 12.5783 38.0502 12.474C38.201 12.7621 38.3952 13.0264 38.6262 13.2579C38.6259 13.2733 38.625 13.2885 38.625 13.3039C38.6258 14.0349 38.9224 14.7358 39.4497 15.2527C39.977 15.7696 40.6918 16.0604 41.4375 16.0612V14.223C41.1889 14.223 40.9504 14.1262 40.7746 13.9538C40.5988 13.7814 40.5 13.5477 40.5 13.3039C40.5 13.0601 40.5988 12.8263 40.7746 12.654C40.9504 12.4816 41.1889 12.3848 41.4375 12.3848V10.5465C40.7551 10.5461 40.096 10.7901 39.5841 11.2325C39.5481 11.0349 39.557 10.832 39.6102 10.6381C39.6634 10.4443 39.7595 10.2643 39.8917 10.111C40.0239 9.95772 40.189 9.83492 40.3752 9.75134C40.5613 9.66775 40.764 9.62544 40.9688 9.62742H43.3125C43.5611 9.6277 43.7993 9.72462 43.9751 9.89693C44.1509 10.0692 44.2497 10.3029 44.25 10.5465V23.4142Z" fill="white"/>
<path d="M57.375 4.11279H35.8125C34.8183 4.1139 33.8651 4.50159 33.1621 5.19083C32.459 5.88006 32.0636 6.81454 32.0625 7.78926V20.2762L26.712 25.5217C26.5809 25.6503 26.4917 25.814 26.4555 25.9923C26.4193 26.1706 26.4379 26.3554 26.5089 26.5233C26.5798 26.6913 26.7 26.8348 26.8542 26.9358C27.0083 27.0368 27.1896 27.0907 27.375 27.0907H32.1811C32.39 27.8794 32.8598 28.5779 33.5169 29.0769C34.174 29.5759 34.9813 29.8471 35.8125 29.8481H57.375C58.3692 29.847 59.3224 29.4593 60.0254 28.7701C60.7284 28.0808 61.1238 27.1463 61.125 26.1716V7.78926C61.1238 6.81454 60.7284 5.88006 60.0254 5.19083C59.3224 4.50159 58.3692 4.1139 57.375 4.11279ZM59.25 26.1716C59.2494 26.659 59.0517 27.1262 58.7002 27.4708C58.3487 27.8154 57.8721 28.0093 57.375 28.0098H35.8125C35.3154 28.0093 34.8388 27.8154 34.4873 27.4708C34.1358 27.1262 33.938 26.659 33.9375 26.1716C33.9375 25.9279 33.8387 25.6941 33.6629 25.5217C33.4871 25.3493 33.2486 25.2525 33 25.2525H29.6383L33.6629 21.3068C33.8387 21.1344 33.9375 20.9007 33.9375 20.6569V7.78926C33.938 7.3019 34.1358 6.83467 34.4873 6.49005C34.8388 6.14544 35.3154 5.95159 35.8125 5.95103H57.375C57.8721 5.95159 58.3487 6.14544 58.7002 6.49005C59.0517 6.83467 59.2494 7.3019 59.25 7.78926V26.1716Z" fill="white"/>
</g>
<defs>
<filter id="filter0_d" x="-1" y="-1.72546" width="68" height="66.8235" filterUnits="userSpaceOnUse" color-interpolation-filters="sRGB">
<feFlood flood-opacity="0" result="BackgroundImageFix"/>
<feColorMatrix in="SourceAlpha" type="matrix" values="0 0 0 0 0 0 0 0 0 0 0 0 0 0 0 0 0 0 127 0"/>
<feOffset/>
<feGaussianBlur stdDeviation="2"/>
<feColorMatrix type="matrix" values="0 0 0 0 0.180392 0 0 0 0 0.603922 0 0 0 0 0.976471 0 0 0 1 0"/>
<feBlend mode="normal" in2="BackgroundImageFix" result="effect1_dropShadow"/>
<feBlend mode="normal" in="SourceGraphic" in2="effect1_dropShadow" result="shape"/>
</filter>
</defs>
</svg>
